<svg width="1080" height="1080" viewBox="0 0 1080 1080" xmlns="http://www.w3.org/2000/svg">
  <defs>
    <style>
      @import url('https://fonts.googleapis.com/css2?family=Amiri:wght@700&amp;family=Cairo:wght@800&amp;display=swap');
      .font-main { font-family: 'Cairo', sans-serif; font-weight: 800; }
      .font-arabic { font-family: 'Amiri', serif; font-weight: 700; }
    </style>
    
    <!-- Pattern Background (Medical Doodles) -->
    <pattern id="doodlePattern" x="0" y="0" width="200" height="200" patternUnits="userSpaceOnUse">
       <g stroke="#ffffff" stroke-width="1" fill="none" opacity="0.1">
          <!-- Random doodles similar to reference -->
          <circle cx="50" cy="50" r="10" />
          <path d="M100,50 Q120,20 140,50" />
          <rect x="150" y="150" width="20" height="20" />
          <path d="M50,150 L70,180" />
       </g>
    </pattern>

    <!-- Mask for the hole -->
    <mask id="wavyHole">
      <rect x="0" y="0" width="1080" height="1080" fill="white" />
      <!-- The inner wavy shape -->
      <path d="M540,180 
               Q620,180 660,240 T840,360 T900,540 T840,720 T660,840 T540,900 T420,840 T240,720 T180,540 T240,360 T420,240 T540,180" 
            fill="black" transform="scale(1.1) translate(-54,-54)" />
    </mask>
  </defs>

  <!-- Main Background Color: Teal/Dark Cyan -->
  <rect width="1080" height="1080" fill="#004d55" mask="url(#wavyHole)" />
  <!-- Pattern Overlay -->
  <rect width="1080" height="1080" fill="url(#doodlePattern)" mask="url(#wavyHole)" />

  <!-- The Wavy White Border -->
  <path d="M540,180 
           Q620,180 660,240 T840,360 T900,540 T840,720 T660,840 T540,900 T420,840 T240,720 T180,540 T240,360 T420,240 T540,180" 
        fill="none" stroke="white" stroke-width="8" transform="scale(1.1) translate(-54,-54)" />

  <!-- Top Center: Graduation Cap Badge -->
  <g transform="translate(540, 150)">
    <!-- Cap Shape -->
    <path d="M-150,0 L0,-50 L150,0 L0,50 Z" fill="#fff" stroke="#004d55" stroke-width="2"/>
    <!-- Lower part -->
    <path d="M-60,50 Q-60,100 60,100 Q60,50 60,30" fill="#fff" stroke="#004d55" stroke-width="2"/>
    <!-- Text -->
    <text x="0" y="25" text-anchor="middle" font-size="60" class="font-main" fill="#004d55">٦٢</text>
    <text x="0" y="85" text-anchor="middle" font-size="35" class="font-arabic" fill="#004d55">دفعة</text>
  </g>

  <!-- Left Side: Wavy Lines / Decorations -->
  <path d="M150,300 Q200,400 150,500 T150,700" fill="none" stroke="#fff" stroke-width="5" opacity="0.8" />
  <path d="M180,320 Q230,420 180,520 T180,720" fill="none" stroke="#fff" stroke-width="3" opacity="0.6" />

  <!-- Right Side: Wavy Lines / Decorations -->
  <path d="M930,300 Q880,400 930,500 T930,700" fill="none" stroke="#fff" stroke-width="5" opacity="0.8" />
  <path d="M900,320 Q850,420 900,520 T900,720" fill="none" stroke="#fff" stroke-width="3" opacity="0.6" />

  <!-- Bottom Center: College Text -->
  <g transform="translate(540, 950)">
    <path id="bottomTextPath" d="M-400,-20 Q0,80 400,-20" fill="none" />
    <text fill="#fff" font-size="60" class="font-arabic">
      <textPath href="#bottomTextPath" startOffset="50%" text-anchor="middle">طب الأزهر بنين القاهرة</textPath>
    </text>
  </g>
  <text x="540" y="1020" text-anchor="middle" font-size="70" fill="#fff" class="font-main" letter-spacing="2">Senior</text>

  <!-- Icons (White Outlines) placements strictly matching reference -->
  
  <!-- 5+2 (Top Left) -->
  <text x="200" y="250" fill="#fff" font-weight="bold" font-size="40" font-family="Arial">5+2</text>
  
  <!-- 5Cs (Left) -->
  <text x="120" y="380" fill="#fff" font-weight="bold" font-size="40" font-family="Arial">5Cs</text>
  
  <!-- Globe (Left Below 5Cs) -->
  <g transform="translate(100, 520)" stroke="#fff" stroke-width="3" fill="none">
    <circle cx="0" cy="0" r="25"/>
    <path d="M-25,0 H25 M0,-25 V25"/> 
  </g>

  <!-- 10^7 (Left Bottom) -->
  <text x="130" y="660" fill="#fff" font-weight="bold" font-size="40" font-family="Arial">10⁷</text>
  
  <!-- Liver/Organ (Bottom Left) -->
  <g transform="translate(220, 780)" stroke="#fff" stroke-width="3" fill="none">
    <path d="M0,0 Q30,-20 40,0 Q40,30 20,40 Q-10,30 0,0"/>
  </g>

  <!-- Microscope (Bottom Center Left) -->
  <g transform="translate(350, 860) scale(0.8)" stroke="#fff" stroke-width="3" fill="none">
    <path d="M-20,40 H20 L0,0 Z"/>
    <path d="M0,0 L-10,-30"/>
  </g>

  <!-- Lungs (Bottom Center Right) -->
  <g transform="translate(680, 860) scale(0.8)" stroke="#fff" stroke-width="3" fill="none">
    <path d="M-10,0 Q-30,20 -10,40 L-5,10 Z"/>
    <path d="M10,0 Q30,20 10,40 L5,10 Z"/>
  </g>

  <!-- Skeleton (Bottom Right) -->
  <g transform="translate(820, 780) scale(0.8)" stroke="#fff" stroke-width="3" fill="none">
    <circle cx="0" cy="-30" r="10"/>
    <line x1="0" y1="-20" x2="0" y2="20"/>
    <line x1="-15" y1="0" x2="15" y2="0"/>
    <line x1="0" y1="20" x2="-10" y2="40"/>
    <line x1="0" y1="20" x2="10" y2="40"/>
  </g>

  <!-- Move (Right) -->
  <text x="900" y="660" fill="#fff" font-weight="bold" font-size="40" font-family="Arial">Move</text>
  
  <!-- Plant/Leaves (Right Above Move) -->
  <g transform="translate(930, 510)" stroke="#fff" stroke-width="3" fill="none">
     <path d="M0,0 Q20,-20 0,-40 Q-20,-20 0,0"/>
  </g>

  <!-- Bug/Louse (Top Right) -->
  <g transform="translate(900, 350)" stroke="#fff" stroke-width="3" fill="none">
     <circle cx="0" cy="0" r="15"/>
     <path d="M-15,0 H-25 M15,0 H25 M-10,-10 L-20,-20 M10,-10 L20,-20 M-10,10 L-20,20 M10,10 L20,20"/>
  </g>
  
  <!-- "Certified College" Badge (Far Top Right) -->
  <g transform="translate(830, 230)">
     <rect x="-40" y="-15" width="80" height="30" rx="10" fill="none" stroke="#fff" stroke-width="2"/>
     <text x="0" y="5" text-anchor="middle" font-size="15" fill="#fff" font-family="sans-serif">كلية معتمدة</text>
  </g>

  <!-- Virus (Top Right Corner) -->
  <g transform="translate(720, 130)" stroke="#fff" stroke-width="2" fill="none">
     <circle r="20"/>
     <line x1="0" y1="-25" x2="0" y2="25"/>
     <line x1="-25" y1="0" x2="25" y2="0"/>
  </g>
  
  <!-- Uterus (Top Left Corner) -->
  <g transform="translate(280, 130)" stroke="#fff" stroke-width="2" fill="none">
      <path d="M-20,0 Q-25,-15 0,-10 Q25,-15 20,0 L0,20 Z"/>
  </g>

</svg>